<svg id="visual" viewBox="0 0 960 540" width="960" height="540" xmlns="http://www.w3.org/2000/svg" xmlns:xlink="http://www.w3.org/1999/xlink" version="1.1"><rect x="0" y="0" width="960" height="540" fill="#001122"></rect><defs><linearGradient id="grad1_0" x1="43.8%" y1="0%" x2="100%" y2="100%"><stop offset="14.444444444444446%" stop-color="#fcaf3c" stop-opacity="1"></stop><stop offset="85.55555555555554%" stop-color="#fcaf3c" stop-opacity="1"></stop></linearGradient></defs><defs><linearGradient id="grad1_1" x1="43.8%" y1="0%" x2="100%" y2="100%"><stop offset="14.444444444444446%" stop-color="#fcaf3c" stop-opacity="1"></stop><stop offset="85.55555555555554%" stop-color="#ce5864" stop-opacity="1"></stop></linearGradient></defs><defs><linearGradient id="grad1_2" x1="43.8%" y1="0%" x2="100%" y2="100%"><stop offset="14.444444444444446%" stop-color="#5e3561" stop-opacity="1"></stop><stop offset="85.55555555555554%" stop-color="#ce5864" stop-opacity="1"></stop></linearGradient></defs><defs><linearGradient id="grad1_3" x1="43.8%" y1="0%" x2="100%" y2="100%"><stop offset="14.444444444444446%" stop-color="#5e3561" stop-opacity="1"></stop><stop offset="85.55555555555554%" stop-color="#001122" stop-opacity="1"></stop></linearGradient></defs><defs><linearGradient id="grad2_0" x1="0%" y1="0%" x2="56.3%" y2="100%"><stop offset="14.444444444444446%" stop-color="#fcaf3c" stop-opacity="1"></stop><stop offset="85.55555555555554%" stop-color="#fcaf3c" stop-opacity="1"></stop></linearGradient></defs><defs><linearGradient id="grad2_1" x1="0%" y1="0%" x2="56.3%" y2="100%"><stop offset="14.444444444444446%" stop-color="#ce5864" stop-opacity="1"></stop><stop offset="85.55555555555554%" stop-color="#fcaf3c" stop-opacity="1"></stop></linearGradient></defs><defs><linearGradient id="grad2_2" x1="0%" y1="0%" x2="56.3%" y2="100%"><stop offset="14.444444444444446%" stop-color="#ce5864" stop-opacity="1"></stop><stop offset="85.55555555555554%" stop-color="#5e3561" stop-opacity="1"></stop></linearGradient></defs><defs><linearGradient id="grad2_3" x1="0%" y1="0%" x2="56.3%" y2="100%"><stop offset="14.444444444444446%" stop-color="#001122" stop-opacity="1"></stop><stop offset="85.55555555555554%" stop-color="#5e3561" stop-opacity="1"></stop></linearGradient></defs><g transform="translate(960, 0)"><path d="M0 432C-41.3 415 -82.7 398.1 -125.8 387.1C-168.9 376.1 -213.7 371.1 -253.9 349.5C-294.2 327.9 -329.8 289.7 -338.2 245.7C-346.5 201.7 -327.5 151.9 -338.6 110C-349.7 68.1 -390.8 34 -432 0L0 0Z" fill="#272646"></path><path d="M0 324C-31 311.3 -62 298.5 -94.3 290.3C-126.6 282.1 -160.3 278.3 -190.4 262.1C-220.6 245.9 -247.4 217.3 -253.6 184.3C-259.9 151.3 -245.6 113.9 -253.9 82.5C-262.2 51.1 -293.1 25.5 -324 0L0 0Z" fill="#99426b"></path><path d="M0 216C-20.7 207.5 -41.3 199 -62.9 193.5C-84.4 188 -106.8 185.5 -127 174.7C-147.1 163.9 -164.9 144.8 -169.1 122.8C-173.3 100.9 -163.7 76 -169.3 55C-174.8 34 -195.4 17 -216 0L0 0Z" fill="#f17d51"></path><path d="M0 108C-10.3 103.8 -20.7 99.5 -31.4 96.8C-42.2 94 -53.4 92.8 -63.5 87.4C-73.5 82 -82.5 72.4 -84.5 61.4C-86.6 50.4 -81.9 38 -84.6 27.5C-87.4 17 -97.7 8.5 -108 0L0 0Z" fill="#fcaf3c"></path></g><g transform="translate(0, 540)"><path d="M0 -432C50.8 -435.3 101.5 -438.6 133.5 -410.9C165.5 -383.1 178.7 -324.2 214 -294.5C249.2 -264.8 306.4 -264.2 325.2 -236.3C344 -208.4 324.3 -153 335.7 -109.1C347.1 -65.1 389.6 -32.6 432 0L0 0Z" fill="#272646"></path><path d="M0 -324C38.1 -326.5 76.1 -329 100.1 -308.1C124.1 -287.3 134 -243.1 160.5 -220.9C186.9 -198.6 229.8 -198.2 243.9 -177.2C258 -156.3 243.3 -114.8 251.8 -81.8C260.3 -48.9 292.2 -24.4 324 0L0 0Z" fill="#99426b"></path><path d="M0 -216C25.4 -217.7 50.8 -219.3 66.7 -205.4C82.7 -191.5 89.4 -162.1 107 -147.2C124.6 -132.4 153.2 -132.1 162.6 -118.1C172 -104.2 162.2 -76.5 167.9 -54.5C173.6 -32.6 194.8 -16.3 216 0L0 0Z" fill="#f17d51"></path><path d="M0 -108C12.7 -108.8 25.4 -109.7 33.4 -102.7C41.4 -95.8 44.7 -81 53.5 -73.6C62.3 -66.2 76.6 -66.1 81.3 -59.1C86 -52.1 81.1 -38.3 83.9 -27.3C86.8 -16.3 97.4 -8.1 108 0L0 0Z" fill="#fcaf3c"></path></g></svg>