<svg id="visual" viewBox="0 0 960 540" width="960" height="540" xmlns="http://www.w3.org/2000/svg" xmlns:xlink="http://www.w3.org/1999/xlink" version="1.1"><rect x="0" y="0" width="960" height="540" fill="#000000"></rect><defs><linearGradient id="grad1_0" x1="43.8%" y1="0%" x2="100%" y2="100%"><stop offset="14.444444444444446%" stop-color="#cccccc" stop-opacity="1"></stop><stop offset="85.55555555555554%" stop-color="#cccccc" stop-opacity="1"></stop></linearGradient></defs><defs><linearGradient id="grad1_1" x1="43.8%" y1="0%" x2="100%" y2="100%"><stop offset="14.444444444444446%" stop-color="#cccccc" stop-opacity="1"></stop><stop offset="85.55555555555554%" stop-color="#acacac" stop-opacity="1"></stop></linearGradient></defs><defs><linearGradient id="grad1_2" x1="43.8%" y1="0%" x2="100%" y2="100%"><stop offset="14.444444444444446%" stop-color="#8d8d8d" stop-opacity="1"></stop><stop offset="85.55555555555554%" stop-color="#acacac" stop-opacity="1"></stop></linearGradient></defs><defs><linearGradient id="grad1_3" x1="43.8%" y1="0%" x2="100%" y2="100%"><stop offset="14.444444444444446%" stop-color="#8d8d8d" stop-opacity="1"></stop><stop offset="85.55555555555554%" stop-color="#6f6f6f" stop-opacity="1"></stop></linearGradient></defs><defs><linearGradient id="grad1_4" x1="43.8%" y1="0%" x2="100%" y2="100%"><stop offset="14.444444444444446%" stop-color="#535353" stop-opacity="1"></stop><stop offset="85.55555555555554%" stop-color="#6f6f6f" stop-opacity="1"></stop></linearGradient></defs><defs><linearGradient id="grad1_5" x1="43.8%" y1="0%" x2="100%" y2="100%"><stop offset="14.444444444444446%" stop-color="#535353" stop-opacity="1"></stop><stop offset="85.55555555555554%" stop-color="#383838" stop-opacity="1"></stop></linearGradient></defs><defs><linearGradient id="grad1_6" x1="43.8%" y1="0%" x2="100%" y2="100%"><stop offset="14.444444444444446%" stop-color="#1f1f1f" stop-opacity="1"></stop><stop offset="85.55555555555554%" stop-color="#383838" stop-opacity="1"></stop></linearGradient></defs><defs><linearGradient id="grad1_7" x1="43.8%" y1="0%" x2="100%" y2="100%"><stop offset="14.444444444444446%" stop-color="#1f1f1f" stop-opacity="1"></stop><stop offset="85.55555555555554%" stop-color="#000000" stop-opacity="1"></stop></linearGradient></defs><defs><linearGradient id="grad2_0" x1="0%" y1="0%" x2="56.3%" y2="100%"><stop offset="14.444444444444446%" stop-color="#cccccc" stop-opacity="1"></stop><stop offset="85.55555555555554%" stop-color="#cccccc" stop-opacity="1"></stop></linearGradient></defs><defs><linearGradient id="grad2_1" x1="0%" y1="0%" x2="56.3%" y2="100%"><stop offset="14.444444444444446%" stop-color="#acacac" stop-opacity="1"></stop><stop offset="85.55555555555554%" stop-color="#cccccc" stop-opacity="1"></stop></linearGradient></defs><defs><linearGradient id="grad2_2" x1="0%" y1="0%" x2="56.3%" y2="100%"><stop offset="14.444444444444446%" stop-color="#acacac" stop-opacity="1"></stop><stop offset="85.55555555555554%" stop-color="#8d8d8d" stop-opacity="1"></stop></linearGradient></defs><defs><linearGradient id="grad2_3" x1="0%" y1="0%" x2="56.3%" y2="100%"><stop offset="14.444444444444446%" stop-color="#6f6f6f" stop-opacity="1"></stop><stop offset="85.55555555555554%" stop-color="#8d8d8d" stop-opacity="1"></stop></linearGradient></defs><defs><linearGradient id="grad2_4" x1="0%" y1="0%" x2="56.3%" y2="100%"><stop offset="14.444444444444446%" stop-color="#6f6f6f" stop-opacity="1"></stop><stop offset="85.55555555555554%" stop-color="#535353" stop-opacity="1"></stop></linearGradient></defs><defs><linearGradient id="grad2_5" x1="0%" y1="0%" x2="56.3%" y2="100%"><stop offset="14.444444444444446%" stop-color="#383838" stop-opacity="1"></stop><stop offset="85.55555555555554%" stop-color="#535353" stop-opacity="1"></stop></linearGradient></defs><defs><linearGradient id="grad2_6" x1="0%" y1="0%" x2="56.3%" y2="100%"><stop offset="14.444444444444446%" stop-color="#383838" stop-opacity="1"></stop><stop offset="85.55555555555554%" stop-color="#1f1f1f" stop-opacity="1"></stop></linearGradient></defs><defs><linearGradient id="grad2_7" x1="0%" y1="0%" x2="56.3%" y2="100%"><stop offset="14.444444444444446%" stop-color="#000000" stop-opacity="1"></stop><stop offset="85.55555555555554%" stop-color="#1f1f1f" stop-opacity="1"></stop></linearGradient></defs><g transform="translate(960, 0)"><path d="M0 432C-49.4 434.1 -98.7 436.1 -133.5 410.9C-168.3 385.6 -188.5 333 -216.9 298.5C-245.3 264 -281.7 247.7 -301.8 219.2C-321.8 190.8 -325.3 150.4 -344.3 111.9C-363.2 73.3 -397.6 36.7 -432 0L0 0Z" fill="#131313"></path><path d="M0 378C-43.2 379.8 -86.4 381.6 -116.8 359.5C-147.3 337.4 -165 291.4 -189.8 261.2C-214.6 231 -246.5 216.7 -264 191.8C-281.6 167 -284.7 131.6 -301.2 97.9C-317.8 64.2 -347.9 32.1 -378 0L0 0Z" fill="#2b2b2b"></path><path d="M0 324C-37 325.5 -74 327.1 -100.1 308.1C-126.2 289.2 -141.4 249.8 -162.7 223.9C-183.9 198 -211.3 185.7 -226.3 164.4C-241.3 143.1 -244 112.8 -258.2 83.9C-272.4 55 -298.2 27.5 -324 0L0 0Z" fill="#454545"></path><path d="M0 270C-30.8 271.3 -61.7 272.6 -83.4 256.8C-105.2 241 -117.8 208.1 -135.6 186.6C-153.3 165 -176.1 154.8 -188.6 137C-201.1 119.3 -203.3 94 -215.2 69.9C-227 45.8 -248.5 22.9 -270 0L0 0Z" fill="#616161"></path><path d="M0 216C-24.7 217 -49.4 218.1 -66.7 205.4C-84.1 192.8 -94.3 166.5 -108.4 149.3C-122.6 132 -140.9 123.8 -150.9 109.6C-160.9 95.4 -162.7 75.2 -172.1 55.9C-181.6 36.7 -198.8 18.3 -216 0L0 0Z" fill="#7e7e7e"></path><path d="M0 162C-18.5 162.8 -37 163.5 -50.1 154.1C-63.1 144.6 -70.7 124.9 -81.3 111.9C-92 99 -105.7 92.9 -113.2 82.2C-120.7 71.6 -122 56.4 -129.1 41.9C-136.2 27.5 -149.1 13.7 -162 0L0 0Z" fill="#9c9c9c"></path><path d="M0 108C-12.3 108.5 -24.7 109 -33.4 102.7C-42.1 96.4 -47.1 83.3 -54.2 74.6C-61.3 66 -70.4 61.9 -75.4 54.8C-80.4 47.7 -81.3 37.6 -86.1 28C-90.8 18.3 -99.4 9.2 -108 0L0 0Z" fill="#bcbcbc"></path><path d="M0 54C-6.2 54.3 -12.3 54.5 -16.7 51.4C-21 48.2 -23.6 41.6 -27.1 37.3C-30.7 33 -35.2 31 -37.7 27.4C-40.2 23.9 -40.7 18.8 -43 14C-45.4 9.2 -49.7 4.6 -54 0L0 0Z" fill="#cccccc"></path></g><g transform="translate(0, 540)"><path d="M0 -432C47.4 -421.6 94.8 -411.2 123.3 -379.5C151.8 -347.8 161.3 -294.8 200.4 -275.9C239.5 -257 308.2 -272.2 348.7 -253.3C389.2 -234.4 401.7 -181.4 410.9 -133.5C420.1 -85.6 426 -42.8 432 0L0 0Z" fill="#131313"></path><path d="M0 -378C41.5 -368.9 83 -359.8 107.9 -332C132.8 -304.3 141.2 -257.9 175.4 -241.4C209.6 -224.9 269.6 -238.2 305.1 -221.7C340.6 -205.1 351.4 -158.7 359.5 -116.8C367.6 -74.9 372.8 -37.4 378 0L0 0Z" fill="#2b2b2b"></path><path d="M0 -324C35.6 -316.2 71.1 -308.4 92.5 -284.6C113.8 -260.8 121 -221.1 150.3 -206.9C179.6 -192.7 231.1 -204.2 261.5 -190C291.9 -175.8 301.2 -136.1 308.1 -100.1C315 -64.2 319.5 -32.1 324 0L0 0Z" fill="#454545"></path><path d="M0 -270C29.6 -263.5 59.3 -257 77.1 -237.2C94.9 -217.4 100.8 -184.2 125.3 -172.4C149.7 -160.6 192.6 -170.1 217.9 -158.3C243.3 -146.5 251 -113.4 256.8 -83.4C262.5 -53.5 266.3 -26.7 270 0L0 0Z" fill="#616161"></path><path d="M0 -216C23.7 -210.8 47.4 -205.6 61.6 -189.7C75.9 -173.9 80.7 -147.4 100.2 -137.9C119.8 -128.5 154.1 -136.1 174.3 -126.7C194.6 -117.2 200.8 -90.7 205.4 -66.7C210 -42.8 213 -21.4 216 0L0 0Z" fill="#7e7e7e"></path><path d="M0 -162C17.8 -158.1 35.6 -154.2 46.2 -142.3C56.9 -130.4 60.5 -110.5 75.2 -103.5C89.8 -96.4 115.6 -102.1 130.8 -95C146 -87.9 150.6 -68 154.1 -50.1C157.5 -32.1 159.8 -16 162 0L0 0Z" fill="#9c9c9c"></path><path d="M0 -108C11.9 -105.4 23.7 -102.8 30.8 -94.9C37.9 -86.9 40.3 -73.7 50.1 -69C59.9 -64.2 77 -68.1 87.2 -63.3C97.3 -58.6 100.4 -45.4 102.7 -33.4C105 -21.4 106.5 -10.7 108 0L0 0Z" fill="#bcbcbc"></path><path d="M0 -54C5.9 -52.7 11.9 -51.4 15.4 -47.4C19 -43.5 20.2 -36.8 25.1 -34.5C29.9 -32.1 38.5 -34 43.6 -31.7C48.7 -29.3 50.2 -22.7 51.4 -16.7C52.5 -10.7 53.3 -5.3 54 0L0 0Z" fill="#cccccc"></path></g></svg>