<svg id="visual" viewBox="0 0 960 540" width="960" height="540" xmlns="http://www.w3.org/2000/svg" xmlns:xlink="http://www.w3.org/1999/xlink" version="1.1"><path d="M602 540L616.2 527.2C630.3 514.3 658.7 488.7 674.8 463C691 437.3 695 411.7 700 386C705 360.3 711 334.7 701.8 308.8C692.7 283 668.3 257 663 231.2C657.7 205.3 671.3 179.7 664.5 154C657.7 128.3 630.3 102.7 611.3 77C592.3 51.3 581.7 25.7 576.3 12.8L571 0L960 0L960 12.8C960 25.7 960 51.3 960 77C960 102.7 960 128.3 960 154C960 179.7 960 205.3 960 231.2C960 257 960 283 960 308.8C960 334.7 960 360.3 960 386C960 411.7 960 437.3 960 463C960 488.7 960 514.3 960 527.2L960 540Z" fill="#fda6a0"></path><path d="M743 540L736.5 527.2C730 514.3 717 488.7 701.2 463C685.3 437.3 666.7 411.7 669.8 386C673 360.3 698 334.7 699.7 308.8C701.3 283 679.7 257 670.8 231.2C662 205.3 666 179.7 675.8 154C685.7 128.3 701.3 102.7 700 77C698.7 51.3 680.3 25.7 671.2 12.8L662 0L960 0L960 12.8C960 25.7 960 51.3 960 77C960 102.7 960 128.3 960 154C960 179.7 960 205.3 960 231.2C960 257 960 283 960 308.8C960 334.7 960 360.3 960 386C960 411.7 960 437.3 960 463C960 488.7 960 514.3 960 527.2L960 540Z" fill="#ff9297"></path><path d="M751 540L748 527.2C745 514.3 739 488.7 732.5 463C726 437.3 719 411.7 725.7 386C732.3 360.3 752.7 334.7 753.7 308.8C754.7 283 736.3 257 738 231.2C739.7 205.3 761.3 179.7 774.5 154C787.7 128.3 792.3 102.7 783.3 77C774.3 51.3 751.7 25.7 740.3 12.8L729 0L960 0L960 12.8C960 25.7 960 51.3 960 77C960 102.7 960 128.3 960 154C960 179.7 960 205.3 960 231.2C960 257 960 283 960 308.8C960 334.7 960 360.3 960 386C960 411.7 960 437.3 960 463C960 488.7 960 514.3 960 527.2L960 540Z" fill="#ff7d93"></path><path d="M775 540L781.8 527.2C788.7 514.3 802.3 488.7 804.3 463C806.3 437.3 796.7 411.7 804.7 386C812.7 360.3 838.3 334.7 840.5 308.8C842.7 283 821.3 257 806.5 231.2C791.7 205.3 783.3 179.7 794.8 154C806.3 128.3 837.7 102.7 846.5 77C855.3 51.3 841.7 25.7 834.8 12.8L828 0L960 0L960 12.8C960 25.7 960 51.3 960 77C960 102.7 960 128.3 960 154C960 179.7 960 205.3 960 231.2C960 257 960 283 960 308.8C960 334.7 960 360.3 960 386C960 411.7 960 437.3 960 463C960 488.7 960 514.3 960 527.2L960 540Z" fill="#ff6793"></path><path d="M846 540L845.5 527.2C845 514.3 844 488.7 848.7 463C853.3 437.3 863.7 411.7 869.3 386C875 360.3 876 334.7 878 308.8C880 283 883 257 890.2 231.2C897.3 205.3 908.7 179.7 906.7 154C904.7 128.3 889.3 102.7 881.8 77C874.3 51.3 874.7 25.7 874.8 12.8L875 0L960 0L960 12.8C960 25.7 960 51.3 960 77C960 102.7 960 128.3 960 154C960 179.7 960 205.3 960 231.2C960 257 960 283 960 308.8C960 334.7 960 360.3 960 386C960 411.7 960 437.3 960 463C960 488.7 960 514.3 960 527.2L960 540Z" fill="#ff4d97"></path></svg>