<?xml version="1.0" encoding="UTF-8"?><svg id="Layer_1" xmlns="http://www.w3.org/2000/svg" viewBox="0 0 500 500"><path d="m154.34,92.11c4.08,6.75,8.88,13.12,14.5,18.63,2.8,2.76,5.75,5.35,8.91,7.66,3.16,2.3,6.47,4.36,9.93,6.13,2.92,1.51,5.97,2.71,9.06,3.77l.33.11c3.3,1.14,5.06,4.74,3.92,8.04-.58,1.69-1.82,2.98-3.32,3.68-5.14,2.38-10.33,4.48-15.3,6.62-4.33,1.87-8.49,3.72-12.35,5.83-3.87,2.09-7.4,4.51-10.69,7.28-.82.69-1.64,1.39-2.41,2.15l-1.18,1.11c-.38.37-.64.72-.96,1.07-.62.71-1.27,1.35-1.85,2.24-.59.85-1.22,1.61-1.78,2.53l-1.68,2.74c-.55.93-1.05,1.93-1.57,2.89l-.78,1.45-.72,1.52-1.44,3.03c-3.66,8.26-6.69,16.98-9.23,25.82-1.22,4.43-2.41,8.88-3.34,13.34-.93,4.44-1.77,8.93-2.18,13.17-.4,4.15-4.09,7.19-8.24,6.79-3.16-.31-5.68-2.52-6.52-5.4l-.02-.09c-1.57-5.42-2.56-10.57-3.53-15.68l-2.71-15.11c-1.48-8.19-3.06-16.27-5.25-23.81-1.12-3.73-2.43-7.31-3.96-10.4l-1.21-2.15c-.48-.73-1.01-1.48-1.51-2.22-1.08-1.46-2.2-2.91-3.46-4.29-2.47-2.78-5.24-5.41-8.21-7.88-2.99-2.44-6.16-4.73-9.46-6.86-6.6-4.25-13.73-7.85-21.03-10.7-4.1-1.6-6.13-6.23-4.52-10.33.82-2.11,2.44-3.67,4.38-4.47l.07-.03c5.77-2.36,11.53-4.73,16.9-7.52,5.47-2.68,10.5-5.82,15.13-9.31l3.39-2.7,3.11-2.95c1.09-.94,1.97-2.06,2.92-3.12.91-1.09,1.95-2.08,2.73-3.29l2.51-3.47c.79-1.2,1.48-2.48,2.23-3.71l1.11-1.86c.34-.65.64-1.32.96-1.97l1.91-3.95c3.27-7.56,6.13-15.68,8.57-23.88.54-1.98,1.12-3.78,1.74-5.4.31-.81.63-1.58.96-2.31.09-.22.14-.27.21-.37.06-.09.13-.18.2-.26.14-.17.29-.33.46-.49.66-.64,1.57-1.3,2.45-2.22.89-.91,1.72-2.04,2.38-3.23,1.92-3.53,2.18-5.64,3.41-4.27.3.35.66.94,1.06,1.86.4.91.83,2.18,1.14,3.8.31,1.61.46,3.55.39,5.58-.02.5-.05,1.04-.08,1.51-.03.34-.05.69-.08,1.05-.06.72-.14,1.46-.24,2.23-.24,1.95-.53,3.93-.85,5.94-.34,2.01-.86,4.03-1.33,6.06-.87,4.07-2.34,8.11-3.66,12.01-.69,1.76-1.45,3.5-2.17,5.25l-1.09,2.62-1.28,2.56c-.88,1.7-1.68,3.43-2.63,5.09l-3.01,4.93c-4.27,6.44-9.44,12.35-15.29,17.37l-4.5,3.59c-1.53,1.14-3.12,2.16-4.68,3.25-1.55,1.12-3.18,2.03-4.8,2.99-1.62.95-3.22,1.96-4.87,2.77l-4.93,2.58-4.98,2.36-2.49,1.17-2.5,1.09-5.01,2.19-.06-12.42c7.63,2.79,14.97,6.18,22.03,10.22,4.59,2.63,9.17,5.56,13.46,8.96,4.29,3.39,8.28,7.26,11.54,11.64,1.06,1.52,2.17,2.97,3.13,4.58.49.81,1.01,1.52,1.47,2.42l1.37,2.62c.5.88.77,1.73,1.16,2.6.35.86.75,1.73,1.05,2.58.56,1.7,1.24,3.42,1.7,5.1,2.04,6.76,3.42,13.4,4.69,19.98,1.25,6.58,2.33,13.1,3.44,19.53,1.12,6.4,2.24,12.79,3.78,18.56l-13.23,1.16c.6-5.26,1.65-10.14,2.83-15,1.43-5.8,3.08-11.48,4.91-17.13,1.82-5.65,3.81-11.25,6.11-16.78,2.3-5.53,4.76-11.02,7.92-16.37,1.59-2.67,3.29-5.32,5.34-7.9.25-.32.48-.65.76-.97l.87-.95,1.76-1.88c.59-.63,1.16-1.08,1.75-1.62.59-.52,1.15-1.06,1.76-1.55,3.19-2.73,6.68-5.16,10.29-7.29,3.61-2.13,7.33-3.92,11.01-5.52,7.38-3.18,14.5-5.78,21.28-8.97l.79,10.07c-6.6-2.12-12.86-5.13-18.64-8.79-5.75-3.71-11.01-8.06-15.78-12.84-4.74-4.81-8.97-10.07-12.72-15.63-3.74-5.55-6.9-11.56-9.56-17.62-3.39-7.79-5.74-15.65-7.26-23.28-1.54-7.63-2.24-15.05-2.25-22.09.01-2.65.58-4.25,1.41-4.69l-.9,2.3c-.22.2-.55.38-.88.46-.33.08-.64.08-.86.06-.45-.05-.62-.11-.66-.05-.02.05.1.24.6.43.25.09.61.17,1.03.13.42-.03.88-.18,1.22-.39l1.22-3.09c1.08.12,2.35,1.81,3.43,5.08,3.23,9.8,6.57,19.94,10.47,29.59,3.18,7.92,6.5,15.93,10.91,22.99.07-.02.14-.04.23-.06Z"/><path d="m328.84,193.87c1.35,3.92,2.79,7.81,4.29,11.64.38.94.76,1.94,1.14,2.82.38.83.71,1.69,1.13,2.51.81,1.64,1.7,3.25,2.69,4.79,3.97,6.19,9.49,11.49,16.02,15.63,5.56,3.61,11.85,6.41,18.39,8.53,3.3,1.07,5.1,4.61,4.04,7.9-.52,1.6-1.63,2.86-3,3.6l-.17.09c-1.38.74-2.78,1.41-4.11,2.25-7.67,4.61-14.56,10.84-20.55,17.83-6,7-11.1,14.83-15.2,23.09-4.09,8.26-7.2,16.99-8.84,25.84-1.63,8.83-1.79,17.82.23,25.98l-14.87,3.04c-1.57-8.68-3.1-17.3-4.96-25.73-1.67-7.59-3.57-15.06-5.95-22.28-2.39-7.21-5.25-14.18-8.73-20.74-.88-1.62-1.81-3.24-2.73-4.82-.94-1.54-1.91-3.05-2.95-4.49-2.07-2.9-4.33-5.59-6.77-7.95-4.89-4.74-10.54-7.91-16.33-8.68-4.36-.58-7.43-4.59-6.85-8.95.34-2.53,1.82-4.62,3.85-5.82l.06-.03c5.29-3.08,10.18-6.75,14.41-11.13,1.1-1.05,2.06-2.24,3.09-3.36.95-1.19,1.95-2.35,2.84-3.6,1.85-2.45,3.5-5.06,5.03-7.76,6.14-10.82,9.82-23.3,12.12-36.12,1.49-8.39,2.93-17.01,3.98-25.58.49-4.1,1.22-7.49,2.13-10.27.45-1.39.96-2.63,1.51-3.73.27-.88.63-1.86,1.06-2.59.43-.76.91-1.32,1.3-1.67,2.24-1.71.52,1.3,3.19,3.74.65.55,1.6.74,2.22.65.31-.01.54-.12.69-.04.14.47.28.96.4,1.49.52,2.11.86,4.72.97,7.78.27,7.75-.35,16.26-1.63,24.25-1.23,7.69-2.81,15.35-4.98,22.93-1.09,3.78-2.3,7.55-3.73,11.25-1.41,3.71-2.99,7.38-4.81,10.95-3.59,7.16-8.12,13.98-13.58,20.05-2.75,3.02-5.7,5.86-8.86,8.48-3.18,2.58-6.53,4.94-10.02,7.08l-2.51-12.63c7.25.81,14.08,3.76,19.7,7.74,4.73,3.33,8.93,7.34,12.43,11.69,1.78,2.17,3.37,4.43,4.81,6.74l1.05,1.74c.32.58.63,1.16.95,1.74.61,1.16,1.24,2.31,1.78,3.48,5.65,11.95,9.58,24.35,12.66,36.72,3.08,12.39,5.3,24.8,7.34,37.04l.02.12c.61,3.69-1.88,7.19-5.58,7.8-3.56.59-6.94-1.72-7.73-5.2-1.52-6.76-1.93-13.62-1.38-20.27,1.06-12.46,4.58-24.32,9.59-35.37,5.06-11.03,11.64-21.31,19.67-30.4,8.18-9.24,17.9-17.38,29.4-22.93l.77,10.32c-3.64-1.25-7.27-2.56-10.8-4.21-3.54-1.58-6.99-3.44-10.32-5.53-3.34-2.06-6.5-4.47-9.47-7.1-2.97-2.63-5.72-5.56-8.12-8.76-2.41-3.19-4.51-6.62-6.22-10.23-.4-.9-.86-1.83-1.22-2.7l-1.07-2.59c-.71-1.73-1.38-3.46-2.05-5.2-2.65-6.95-5.08-13.95-7.28-21.05-2.45-7.92-4.34-15.81-5.35-23.54-.98-7.7-1.18-15.35.35-22.25.48-1.77,1.08-2.95,1.71-3.51l-.14-.79c-.06-.36-.25-.79-.53-1.13-.28-.35-.6-.59-.85-.76-.5-.34-.76-.52-.81-.72-.03-.18.1-.43.9-.49.39-.02,1.01.06,1.7.43.69.35,1.33,1,1.72,1.61l.38,2.1c.33.41.61,1.01.84,1.77.24.77.33,1.67.54,2.85.19,1.18.28,2.33.54,3.54.23,1.2.46,2.41.7,3.62.58,2.45,1.11,4.9,1.8,7.39,1.31,4.96,2.81,9.99,4.44,14.99,2.64,8.22,5.2,16.79,8.3,25.05.08,0,.15,0,.24,0Z"/><path d="m199.44,340.47c2.48,7.11,6.68,13.1,12.71,17.38.56.47,1.22.82,1.85,1.2l1.91,1.15c1.34.68,2.74,1.26,4.12,1.88l.49.22c3.14,1.41,4.54,5.09,3.13,8.23-.7,1.57-2,2.71-3.49,3.28-1.1.42-2.19.84-3.25,1.28-2.2.91-4.29,1.82-6.14,2.8-1.85.99-3.47,2.03-4.92,3.27-2.88,2.46-5.42,5.88-7.56,9.61-2.12,3.75-3.86,7.79-4.9,11.74-1.06,3.91-1.27,7.86-.47,10.27l-14.66,3.67c-1.13-4.94-2.33-9.75-3.8-14.3-2.26-7-5.22-13.43-9.39-18.59-4.16-5.19-9.49-9.14-15.17-10.67-4.24-1.14-6.74-5.5-5.6-9.74.56-2.07,1.89-3.73,3.6-4.75l.36-.21,1.94-1.15.97-.57.92-.66,1.86-1.31,1.76-1.48.88-.74.83-.81,1.67-1.63,1.56-1.76.79-.88c.25-.3.49-.63.73-.94,3.95-4.98,7.22-10.72,9.79-16.88,1.65-3.87,3.59-7.76,5.26-11.74.85-1.88,1.78-3.4,2.96-4.56,1.13-1.18,2.42-2.03,3.81-2.62,2.02-.86,3.85-.54,5.11.86,1.26,1.39,1.99,3.88,1.61,7.13-.46,4.11-1.76,8.47-3.49,12.4-.8,1.96-1.76,3.88-2.64,5.81l-1.45,2.85-.73,1.42-.79,1.4c-2.02,3.76-4.4,7.38-6.95,10.88-2.56,3.51-5.52,6.79-8.7,9.89-3.25,3.05-6.87,5.77-10.77,8.17l-1.42-12.67c3.09.7,6.09,1.78,8.91,3.15,5.57,2.66,10.81,6.58,14.08,11.38,2.22,3.18,4.12,6.54,5.78,9.89,1.66,3.35,3.04,6.76,4.27,10.16,2.42,6.82,4.12,13.64,5.43,20.32l.03.17c.72,3.66-1.66,7.22-5.32,7.94-3.49.69-6.89-1.46-7.83-4.83-.97-3.51-1-6.86-.64-9.94.43-3.61,1.33-6.93,2.43-10.08,1.11-3.15,2.45-6.14,3.98-9.03,1.53-2.88,3.25-5.65,5.25-8.31,2.01-2.65,4.27-5.21,7.04-7.45,2.92-2.41,6.28-4.29,9.46-5.66,3.21-1.4,6.24-2.44,9.2-3.51l.12,10.39c-7.6-2.94-14.75-7.8-20.07-14.19-.64-.81-1.24-1.65-1.86-2.48l-.91-1.25c-.28-.43-.53-.87-.8-1.31l-1.57-2.63-1.33-2.73-.66-1.36-.55-1.4-1.09-2.79-.89-2.83c-.3-.94-.59-1.88-.8-2.84-.27-1.08-.52-2.16-.74-3.23-.17-1.07-.33-2.14-.46-3.2-.15-1.06-.22-2.11-.25-3.15-.04-1.04-.07-2.07-.05-3.09.14-4.08.76-7.96,2.03-11.58,1.15-3.33,4.48-3.24,5.47.35,1.43,5.09,2.7,10.29,4.12,15.21,1.13,4.05,2.06,8.14,3.63,11.83.07-.02.14-.03.22-.05Z"/><path d="m432.15,92.91c.9,3.12,2.13,6.11,3.56,8.98.38.7.7,1.45,1.13,2.12l1.23,2.06c.9,1.3,1.78,2.65,2.8,3.85,1.47,1.88,3.18,3.54,4.98,5.07l.08.07c2.7,2.29,3.04,6.33.75,9.04-.36.43-.8.82-1.24,1.13-.79.55-1.58,1.11-2.35,1.68-5,4.16-9.13,9.66-12,15.75-1.45,3.03-2.62,6.2-3.4,9.35-.17.78-.4,1.57-.5,2.34-.13.77-.28,1.55-.33,2.28l-.11,1.1v1.02s-.03.51-.03.51c0,.16.03.3.04.44.03.29.05.58.06.87l.02.35c.18,4.13-3.02,7.64-7.15,7.82-3.33.15-6.26-1.92-7.36-4.88-1.06-2.87-1.96-5.73-2.72-8.41-.77-2.67-1.46-5.28-2.23-7.6-.18-.59-.37-1.15-.57-1.69-.2-.54-.38-1.1-.59-1.62-.44-1-.84-2.05-1.34-2.92-.44-.96-1.01-1.73-1.51-2.58-.28-.39-.59-.74-.87-1.12l-.43-.56-.5-.49c-2.54-2.67-6.01-4.69-10.29-6.06-4.17-1.33-6.47-5.79-5.14-9.96.61-1.92,1.89-3.44,3.49-4.4l.39-.23,1.96-1.17c.33-.19.66-.38.98-.58l.91-.67c.6-.45,1.24-.86,1.83-1.33l1.7-1.48c2.17-2.07,4.24-4.28,5.87-6.9,1.67-2.57,3.15-5.33,4.27-8.34.64-1.46,1.05-3.04,1.58-4.57l.62-2.38.31-1.19.24-1.22c.76-3.35,1.69-6.82,2.57-10.3.18-.84.45-1.6.78-2.3.35-.76.7-1.04,1.23-2.56.54-1.19,1.24-2.12,1.93-2.67.68-.56,1.33-.78,1.85-.78,1.51.05,1.87,2.12,3.36,3.8.7.84,1.78,1.5,2.74,1.53.47.03.85-.07,1.08-.16l.04-.02s.03,0,.03.05l.06.23c.03.15.07.31.1.47.06.32.11.65.15,1,.09.87.15,1.77.18,2.67,0,.91-.05,1.83-.12,2.75-.1,1.84-.46,3.69-.83,5.48-.95,4.1-1.99,8.19-3.48,12.21-1.46,4.01-3.14,7.99-5.37,11.76-4.29,7.59-10.52,14.44-18.06,19.39-.43.29-.85.59-1.29.88l-1.18-13.65c2.18.66,4.42,1.16,6.59,2.23,1.09.49,2.16.98,3.17,1.69.51.33,1,.67,1.49,1.03.49.34.96.71,1.39,1.15,2.96,2.64,5.46,5.84,7.45,9.11,2.01,3.3,3.38,6.73,4.46,9.98,1.09,3.25,1.93,6.42,2.7,9.37.78,2.95,1.54,5.74,2.35,8.36l-12.94,2.93c-.03-1.3-.11-2.69.04-3.86.23-3.12.86-5.9,1.61-8.63l.58-2.02.68-1.97c.43-1.33.98-2.58,1.49-3.86,2.13-5.07,4.91-9.82,8.33-14.13,3.78-4.71,8.3-8.95,13.58-12.2l-.36,9.04c-5.3-4.39-9.7-9.69-12.93-15.49l-1.21-2.18-1.08-2.23-.54-1.11-.47-1.14-.94-2.28c-1.13-3.07-2.15-6.17-2.88-9.33-1.78-7.26-1.39-14.55,1.46-20.51.38-.8.94-1.35,1.55-1.61.11-.05.16-.17.11-.28,0-.02-.02-.04-.04-.06l-.92-1.01c-.38-.42-1.07-.64-1.49-.72-.44-.09-.7-.16-.8-.33-.09-.16-.04-.44.46-.77.25-.16.64-.33,1.16-.39.51-.07,1.13,0,1.68.17l2.12,3.39c.72.34,1.33,1.04,1.62,2.08,1.17,4.15,2.28,8.34,3.5,12.39.99,3.32,1.71,6.77,2.89,10.02.07-.02.14-.03.22-.05Z"/><path d="m411.43,395.83c.19.82.38,1.67.59,2.45.1.41.21.78.31,1.12.1.35.2.71.33,1.05.47,1.39,1.06,2.77,1.77,4.04,1.42,2.56,3.28,4.82,5.44,6.45,1.2.89,2.49,1.6,3.86,2.05l.44.15c3.27,1.08,5.05,4.61,3.96,7.88-.51,1.54-1.58,2.76-2.89,3.49-1.4.78-2.72,1.67-3.91,2.71-2.47,2.17-4.53,4.81-6.47,7.88-.97,1.53-1.92,3.17-2.88,4.88l-1.47,2.62c-.45.82-.83,1.52-1.2,2.31-1.47,3.07-2.54,6.27-2.99,9.41-.47,3.14-.35,6.17.37,8.92l-14.67,3.18c-1.15-5.18-2.38-10.19-3.98-14.88-1.91-5.63-4.34-10.78-7.62-15.08-3.27-4.32-7.31-7.78-11.76-9.69-4.03-1.74-5.9-6.42-4.16-10.45.77-1.79,2.12-3.15,3.74-3.96l.38-.19,1.81-.91.91-.44.86-.53,1.72-1.06,1.62-1.22.82-.6.76-.69,1.52-1.36,1.4-1.51c.23-.25.48-.49.7-.75l.64-.82c.43-.55.87-1.08,1.29-1.64l1.18-1.75c.41-.57.76-1.19,1.11-1.81.35-.62.72-1.23,1.05-1.86.6-1.31,1.3-2.56,1.8-3.94.27-.68.55-1.34.81-2.03l.69-2.09c1.02-3.33,2.38-6.68,3.35-10.16.5-1.64,1.17-3.06,2.13-4.11.38.2,1.14.66,2.12.58.98-.06,1.88-.75,2.33-1.62,1.28-2.63.2-4.79,1.67-5.05.37-.04.96.08,1.75.65.78.55,1.71,1.66,2.25,3.05.28.69.47,1.41.6,2.11.05.32.1.64.15.97.04.15.08.3.12.46.15.63.25,1.31.3,2.05.17,1.87-.03,3.82-.25,5.77-.15.97-.36,1.94-.57,2.9-.11.48-.22.96-.34,1.43-.14.47-.29.94-.43,1.4-2.39,7.75-5.88,15.21-10.77,21.92-2.45,3.35-5.33,6.42-8.49,9.23-3.21,2.78-6.8,5.11-10.6,7.14l-.04-12.87c1.64.64,3.28,1.32,4.83,2.15,4.82,2.46,9.42,5.93,12.22,10.19,8.16,12.36,12.09,25.68,14.31,38.3l.07.38c.64,3.64-1.79,7.12-5.44,7.76-3.6.63-7.03-1.74-7.74-5.3-.31-1.56-.53-3.12-.6-4.67-.32-6.37.97-12.46,3.15-17.94,1.09-2.74,2.43-5.39,3.94-7.84,1.33-2.16,2.7-4.42,4.25-6.69,1.93-2.83,4.14-5.71,6.78-8.31,2.61-2.62,5.67-4.86,8.86-6.66l1.31,9.97c-3.64-1.14-6.94-3.04-9.67-5.41-2.75-2.36-4.97-5.14-6.74-8.09-.9-1.48-1.65-3.02-2.34-4.59-.65-1.56-1.24-3.24-1.66-4.76-.89-3.09-1.54-6.11-2.11-9.15-.69-3.73-.99-7.4-.76-10.97.23-3.56.96-7.04,2.45-10.12.34-.67.79-1.16,1.29-1.44l-.02.16c.1.12.1.41-.05.67-.15.27-.41.47-.6.6-.4.26-.61.41-.64.66,0,.22.1.61.94.77.41.07,1.1,0,1.79-.45.69-.43,1.17-1.18,1.37-1.73l.06-.56c.6.38,1.05,1,1.29,1.91,1.14,4.21,2.34,8.62,3.53,13.01.98,3.63,1.53,7.47,2.53,11.01.07,0,.14-.02.22-.03Z"/></svg>